<?xml version="1.0" standalone="no"?>
<!DOCTYPE svg PUBLIC "-//W3C//DTD SVG 20010904//EN"
 "http://www.w3.org/TR/2001/REC-SVG-20010904/DTD/svg10.dtd">
<svg version="1.0" xmlns="http://www.w3.org/2000/svg"
 width="1200.000000pt" height="351.000000pt" viewBox="0 0 1200.000000 351.000000"
 preserveAspectRatio="xMidYMid meet">

<g transform="translate(0.000000,351.000000) scale(0.100000,-0.100000)"
fill="#000000" stroke="none">
<path d="M0 1800 l0 -1140 210 0 210 0 0 465 0 465 440 0 440 0 0 -465 0 -465
210 0 210 0 0 1140 0 1140 -210 0 -210 0 0 -475 0 -475 -440 0 -440 0 0 475 0
475 -210 0 -210 0 0 -1140z"/>
<path d="M6100 2925 c-262 -56 -454 -228 -515 -460 -58 -222 -6 -469 127 -604
94 -96 177 -140 428 -231 171 -62 243 -98 294 -147 46 -45 65 -80 73 -138 10
-74 -13 -132 -77 -197 -64 -64 -124 -88 -219 -88 -127 0 -231 50 -333 159
l-70 75 -139 -144 c-76 -80 -138 -150 -139 -156 0 -18 151 -159 218 -202 152
-98 307 -138 502 -129 149 7 213 23 339 84 76 36 109 60 171 122 135 135 187
278 177 490 -9 190 -54 313 -154 421 -96 104 -202 159 -478 250 -249 82 -307
129 -306 250 0 112 42 189 124 232 63 32 184 36 261 9 74 -26 151 -72 217
-130 28 -24 54 -40 58 -35 86 97 241 288 241 298 0 16 -90 102 -153 144 -71
49 -183 99 -271 122 -95 24 -275 26 -376 5z"/>
<path d="M3710 2170 c0 -656 2 -771 16 -838 62 -304 270 -546 549 -639 73 -25
94 -27 235 -28 132 0 167 3 235 23 407 117 664 466 642 872 -17 312 -191 582
-462 716 -125 61 -222 84 -359 84 -177 0 -291 -38 -410 -135 l-56 -45 0 375 0
375 -195 0 -195 0 0 -760z m936 -221 c92 -17 162 -55 235 -128 74 -75 111
-144 129 -241 54 -297 -219 -572 -516 -521 -95 17 -169 55 -240 123 -184 176
-189 449 -12 634 62 65 138 110 221 130 67 16 109 17 183 3z"/>
<path d="M11353 2682 l-193 -87 0 -741 c0 -709 1 -744 20 -819 44 -170 147
-280 321 -341 63 -23 96 -27 225 -31 175 -6 173 -7 197 89 9 35 30 110 45 168
l29 105 -116 0 c-71 0 -135 6 -165 14 -63 19 -130 81 -145 136 -7 26 -11 174
-11 418 l0 377 180 0 180 0 0 170 0 170 -180 0 -180 0 0 230 c0 127 -3 230 -7
229 -5 0 -95 -40 -200 -87z"/>
<path d="M1972 1823 c4 -619 3 -605 73 -749 97 -198 290 -353 501 -399 105
-24 291 -16 384 15 200 67 358 203 444 383 72 148 70 131 74 750 l3 557 -195
0 -195 0 -3 -532 -3 -533 -26 -56 c-36 -76 -86 -129 -161 -170 -58 -32 -70
-34 -153 -34 -78 0 -98 4 -150 28 -76 35 -146 110 -177 185 -23 57 -23 61 -26
585 l-3 527 -195 0 -195 0 3 -557z"/>
<path d="M7806 2361 c-157 -44 -315 -147 -416 -274 -59 -74 -131 -214 -162
-317 -22 -75 -23 -77 -26 -867 l-3 -793 196 0 195 0 0 376 0 375 57 -46 c63
-51 120 -83 203 -111 87 -30 329 -27 430 4 276 87 481 296 566 577 24 79 27
108 28 235 1 112 -3 161 -18 215 -65 246 -236 450 -469 561 -129 61 -195 76
-362 80 -126 3 -161 1 -219 -15z m353 -386 c228 -54 381 -281 343 -507 -42
-246 -273 -417 -511 -379 -193 31 -349 185 -382 380 -39 218 117 452 337 505
78 19 135 19 213 1z"/>
</g>
</svg>
